<?xml version="1.0" encoding="UTF-8"?>
<svg width="752pt" height="752pt" version="1.1" viewBox="0 0 752 752" xmlns="http://www.w3.org/2000/svg">
 <g>
  <path d="m453.67 512.87c-3.3164 13.262-5.2109 26.992-5.2109 40.254 0 12.785 1.8945 26.047 6.6289 38.832l1.8945 4.2617-4.7344 1.4219c-19.891 7.1055-41.676 10.891-63.934 11.367-22.258 0-45.465-2.3672-69.617-8.0508l-5.2109-1.4219 1.8945-4.7344c4.2617-11.84 6.1562-23.68 6.1562-35.047-0.47266-10.891-2.3672-21.785-6.6289-32.203l-69.145-2.8398c-6.1562 0.47266-11.367-0.47266-15.629-2.3672-4.2617-2.3672-7.5781-6.1562-9.9453-10.418l-0.47266-1.8945-1.8945-54.934c-1.4219-1.4219-3.7891-2.3672-6.1562-3.7891-6.1562-2.3672-10.891-4.7344-7.1055-11.84 1.4219-3.3164 2.8398-6.1562 4.2617-7.5781-0.94531-0.94531-2.3672-1.8945-4.2617-2.8398l-1.8945-1.4219v-2.3672c0-0.94531 0.94531-4.7344 2.8398-9.4727 1.4219-2.8398 2.8398-6.6289 4.7344-10.418-4.7344-1.8945-9.4727-4.2617-13.734-8.0508-5.6836-5.2109-10.418-12.312-13.734-22.258l-0.47266-2.3672 1.4219-1.8945 46.41-54.934c-0.94531-85.246 38.359-136.39 90.453-159.12 33.625-14.207 72.457-17.051 108.92-9.4727 36.938 7.1055 71.512 24.625 97.086 50.199 40.727 40.727 58.723 102.29 25.574 178.54l-0.94531 0.94531c-11.367 13.734-27.469 21.785-44.516 25.574-19.418 3.7891-40.254 2.3672-58.723-2.8398-10.891 10.891-25.102 22.258-37.414 27.941-6.6289 2.8398-12.785 4.2617-18.469 2.8398-6.1562-0.94531-11.367-4.7344-14.207-12.312-3.3164-7.1055-4.7344-17.523-3.3164-32.203v-3.7891l3.7891-0.47266c11.84-1.4219 23.207-2.8398 34.57-4.2617 10.891-0.94531 22.258-2.3672 34.098-3.3164h0.47266c2.8398 0 3.7891-2.3672 4.2617-5.6836 0.94531-4.2617 0-10.418-0.47266-15.156l8.9961-1.4219c0.94531 5.6836 1.8945 12.312 0.94531 17.996-0.94531 7.5781-4.7344 13.262-13.262 13.734-11.367 0.94531-22.73 1.8945-34.098 3.3164-10.418 0.94531-20.363 2.3672-30.309 3.7891-0.47266 10.891 0.47266 18.941 2.8398 23.68 1.8945 4.2617 4.2617 6.1562 7.5781 7.1055 3.3164 0.47266 8.0508-0.47266 12.785-2.3672 11.84-5.6836 26.047-17.051 36.465-27.941l2.3672-1.8945 2.3672 0.47266c17.996 5.2109 38.359 7.1055 56.828 3.3164 14.68-2.8398 28.887-9.9453 38.832-21.785 30.781-71.512 14.207-129.29-23.68-167.18-24.152-24.152-57.305-40.727-92.348-47.832-34.57-6.6289-71.512-4.2617-103.24 9.4727-49.254 21.312-86.191 70.09-84.77 151.55l-0.94531 3.3164-45.938 53.988c2.8398 7.1055 6.1562 11.84 9.9453 15.629 4.2617 3.7891 9.4727 6.1562 15.156 7.5781l5.6836 0.94531-2.3672 5.2109c-2.8398 6.1562-5.2109 11.84-6.6289 15.629-0.94531 1.4219-1.4219 2.8398-1.8945 3.3164 2.3672 1.4219 3.7891 2.3672 4.7344 2.8398 2.8398 1.4219 4.2617 1.8945 4.2617 4.7344 0.47266 2.8398-0.94531 3.7891-2.8398 5.2109-0.94531 0.47266-3.3164 2.3672-5.6836 7.5781-0.94531 1.4219 1.4219-0.94531 2.3672-0.47266 3.7891 1.8945 8.5234 3.7891 11.367 8.5234l0.47266 2.3672 1.8945 54.934c1.4219 2.3672 3.3164 3.7891 5.2109 5.2109 2.8398 1.4219 6.1562 1.8945 10.418 1.4219h0.94531l72.457 2.8398h3.3164l0.94531 2.8398c5.6836 12.785 8.0508 25.574 8.5234 38.359 0 11.367-1.8945 22.258-5.2109 33.625 21.785 4.7344 42.621 6.6289 62.512 6.6289 19.418-0.47266 38.359-3.7891 56.355-8.9961-3.7891-12.312-5.6836-25.102-5.6836-37.414 0-14.207 1.8945-28.414 5.2109-42.621l9.4727 2.3672z"/>
  <path d="m386.89 264.71v77.668 2.8398c0 11.84-9.4727 21.312-21.312 21.312-11.367 0-20.836-9.4727-20.836-21.312 0-3.3164 0.47266-6.1562 1.8945-8.9961-0.47266-0.47266-0.94531-0.47266-1.4219-0.94531-2.8398 3.7891-7.1055 6.6289-12.312 6.6289-8.5234 0-15.629-7.1055-15.629-15.629 0-4.2617 1.8945-8.5234 4.7344-11.367v-0.47266c-1.8945 1.4219-4.2617 2.3672-6.6289 2.3672-6.6289 0-11.84-5.2109-11.84-11.84 0-4.7344 2.8398-8.5234 6.6289-10.418v-0.94531c-0.47266 0.47266-0.94531 0.47266-1.4219 0.47266-6.1562 0-11.367-5.2109-11.367-11.84 0-5.2109 3.3164-9.4727 7.5781-10.891v-0.94531c-0.94531 0-1.4219-0.47266-2.3672-0.94531-0.47266 0-0.47266-0.47266-0.94531-0.47266 0-0.47266-0.47266-0.47266-0.47266-0.94531h-0.47266l-0.47266-0.47266h-0.47266v-0.94531h-0.47266v-0.47266h-0.47266v-0.47266h-0.47266v-0.94531h-0.47266v-0.94531h-0.47266v-1.418l-0.47266-0.47266v-0.94531-0.47266-0.94531-0.47266-2.3633h0.47266v-1.418h0.47266v-0.94531l0.47266-0.47266v-0.47266l0.47266-0.47266v-0.47266h0.47266v-0.47266h0.47266v-0.47266h0.47266v-0.47266h0.47266v-0.47266h0.47266v-0.47266h0.47266c0-0.47266 0-0.47266 0.47266-0.47266h0.47266v-0.47266h0.47266c0.47266-0.47266 0.94531-0.47266 0.94531-0.47266h0.47266v-0.47266h0.47266 0.47266c0.47266 0 0.47266 0 0.94531-0.47266 0 0 0-0.47266 0.47266-0.94531-3.7891-2.3672-6.1562-6.1562-6.1562-10.418 0-6.1562 5.2109-11.367 11.84-11.367h2.3672c0-0.47266 0.47266-0.94531 0.47266-0.94531-1.4219-1.8945-1.8945-4.2617-1.8945-6.6289 0-6.6289 5.2109-11.84 11.367-11.84 1.4219 0 2.8398 0.47266 4.2617 0.47266 0.47266 0 0.47266-0.47266 0.94531-0.94531-0.94531-1.8945-1.4219-3.7891-1.4219-5.6836 0-6.6289 5.2109-11.84 11.84-11.84 3.3164 0 6.6289 1.8945 8.5234 4.2617 0.47266-0.47266 0.47266-0.47266 0.94531-0.47266-0.47266-1.4219-0.47266-2.8398-0.47266-4.2617 0-10.418 8.5234-18.941 18.941-18.941 8.9961 0 16.102 6.1562 17.996 14.207h0.47266v0.47266c0 1.4219 0.47266 2.8398 0.47266 4.2617s-0.47266 2.8398-0.47266 3.7891v73.879zm-85.719-14.68h0.47266z" fill-rule="evenodd"/>
  <path d="m393.52 264.71v77.668 2.8398c0 11.84 9.4727 21.312 20.836 21.312 11.84 0 21.312-9.4727 21.312-21.312 0-3.3164-0.47266-6.1562-1.8945-8.9961 0.47266-0.47266 0.94531-0.47266 1.4219-0.94531 2.8398 3.7891 7.1055 6.6289 12.312 6.6289 8.5234 0 15.629-7.1055 15.629-15.629 0-4.2617-1.8945-8.5234-4.7344-11.367v-0.47266c1.8945 1.4219 4.2617 2.3672 6.6289 2.3672 6.6289 0 11.84-5.2109 11.84-11.84 0-4.7344-2.8398-8.5234-6.6289-10.418v-0.94531c0.47266 0.47266 0.94531 0.47266 0.94531 0.47266 6.6289 0 11.84-5.2109 11.84-11.84 0-5.2109-3.3164-9.4727-7.5781-10.891v-0.94531c0.94531 0 1.4219-0.47266 2.3672-0.94531l0.47266-0.47266h0.47266c0-0.47266 0.47266-0.47266 0.47266-0.94531h0.47266c0-0.47266 0.47266-0.47266 0.47266-0.47266v-0.47266h0.47266v-0.47266h0.47266v-0.47266l0.47266-0.47266v-0.47266h0.47266v-0.94531h0.47266v-0.94531h0.47266v-1.418h0.47266v-0.94531-0.47266-0.94531-0.47266-1.8906l-0.47266-0.47266v-1.418h-0.47266v-0.94531h-0.47266v-0.94531h-0.47266v-0.47266l-0.47266-0.47266v-0.47266h-0.47266v-0.47266h-0.47266v-0.47266h-0.47266v-0.47266h-0.47266v-0.47266h-0.47266c-0.47266-0.47266-0.47266-0.47266-0.47266-0.47266h-0.47266v-0.47266h-0.47266-0.47266c0-0.47266-0.47266-0.47266-0.47266-0.47266h-0.47266v-0.47266h-0.47266-0.47266c-0.47266 0-0.47266 0-0.94531-0.47266 0 0-0.47266-0.47266-0.47266-0.94531 3.7891-2.3672 5.6836-6.1562 5.6836-10.418 0-6.1562-5.2109-11.367-11.367-11.367h-2.3672c0-0.47266-0.47266-0.94531-0.47266-0.94531 0.94531-1.8945 1.8945-4.2617 1.8945-6.6289 0-6.6289-5.2109-11.84-11.84-11.84-1.4219 0-2.3672 0.47266-3.7891 0.47266-0.47266 0-0.94531-0.47266-0.94531-0.94531 0.94531-1.8945 1.4219-3.7891 1.4219-5.6836 0-6.6289-5.2109-11.84-11.84-11.84-3.3164 0-6.6289 1.8945-8.5234 4.2617-0.47266-0.47266-0.94531-0.47266-0.94531-0.47266 0-1.4219 0.47266-2.8398 0.47266-4.2617 0-10.418-8.5234-18.941-18.941-18.941-8.9961 0-16.102 6.1562-18.469 14.207v0.47266c0 1.4219-0.47266 2.8398-0.47266 4.2617s0.47266 2.8398 0.47266 3.7891v73.879z" fill-rule="evenodd"/>
 </g>
</svg>
