<?xml version="1.0" encoding="UTF-8"?>
<svg width="752pt" height="752pt" version="1.1" viewBox="0 0 752 752" xmlns="http://www.w3.org/2000/svg">
 <path d="m495.33 276.45c6.2227-4.5352 10.312-11.824 10.312-20.113 0-13.77-11.16-24.93-24.93-24.93 0-13.77-11.16-24.93-24.93-24.93-3.1367 0-6.1094 0.64453-8.875 1.7031-4.4141-6.9961-12.16-11.672-21.043-11.672-3.0234 0-5.8828 0.62109-8.5664 1.6055-2.418-6.7344-8.7969-11.578-16.367-11.578-5.6289 0-10.582 2.7109-13.773 6.8477-4.3984-7.0781-12.184-11.836-21.129-11.836-9.3945 0-17.477 5.2578-21.727 12.934-4.5508-4.8633-10.977-7.9492-18.164-7.9492-12.715 0-23.09 9.5547-24.621 21.855-2.3555-1.1836-4.9727-1.9141-7.7891-1.9141-9.6367 0-17.453 7.8125-17.453 17.453 0 0.27344 0.066406 0.53125 0.082031 0.80469-15.719 3.3945-27.504 17.363-27.504 34.102 0 8.5039 3.0469 16.293 8.1016 22.348-6.5273 6.3438-10.598 15.199-10.598 25.02 0 11.836 5.9062 22.277 14.918 28.59-8.5469 7.3711-13.082 18.961-10.77 30.996 2.6328 13.73 13.309 22.633 26.133 24.656 7.6562 38.328 24.512 70.816 64.863 82.793h-37.805l14.176 28.348c-17.531 7.2852-38.254 15.957-42.367 19.121-0.003906 0-0.027344-0.011719-0.027344-0.011719-14.324 4.7266-21.695 26.625-25.777 49.773h250.13c-4.082-23.148-11.453-45.047-25.777-49.773 0 0-0.023437 0.011719-0.027343 0.015625-4.0898-3.1484-24.617-11.746-42.09-19.008l21.348-28.461h-38.309c24.133-7.3906 39.555-22.602 49.566-42.094 3.1367-9.0898 5.75-17.746 8.0078-26.277 10.441-2.9766 18.133-12.48 18.133-23.875 0-3.5391-0.75781-6.8906-2.0859-9.9414 10.195-6.0938 17.047-17.207 17.047-29.949 0-7.4219-2.332-14.289-6.2812-19.945 3.9492-5.6562 6.2812-12.523 6.2812-19.945 0-9.6797-3.9453-18.438-10.312-24.762z" fill-rule="evenodd"/>
</svg>
