<?xml version="1.0" encoding="UTF-8"?>
<svg width="752pt" height="752pt" version="1.1" viewBox="0 0 752 752" xmlns="http://www.w3.org/2000/svg">
 <path d="m478.13 337.95c26.879-59.898 30.996-170.66-9.1055-148.79-18.543 10.113-44.648 16.445-70.066 20.41-10.914-0.76172-21.289-1.1445-28.957-0.97656h-0.003906c-24.262-0.52344-75.652 4.4336-85.488 9.5117-20.945 10.812-18.008 77.77-15.121 113.21-0.33984-0.03125-0.66406-0.11719-1.0078-0.11719-7.4727 0-13.527 7.0664-13.527 15.781 0 3.1992 0.82812 6.1641 2.2305 8.6523-2.2422 5.2617-3.0547 11.223-1.8828 17.316 2.3789 12.414 12.031 20.469 23.633 22.297 7.4258 37.172 24.391 68.289 66.906 76.941v3.6719c0.015624 8.5664-1.4141 6.7852-9.4102 11.234 0 0-0.13672 0.11328-0.28125 0.23438-11.797 5.3398-52.562 21.344-58.238 25.711-0.003906 0-0.027344-0.011718-0.027344-0.011718-14.523 4.793-21.129 29.098-24.512 52.637h228.59c-3.3867-23.539-9.9922-47.844-24.512-52.637l-0.023438 0.011718c-5.6836-4.375-46.555-20.414-58.289-25.734-0.085938-0.078126-0.23047-0.21094-0.23047-0.21094-8-4.4492-9.4258-2.6719-9.4102-11.234v-2.5312c46.188-6.6328 63.867-39.215 71.355-78.094 11.562-1.8516 21.18-9.8984 23.551-22.285 0.97656-5.082 0.57812-10.074-0.87109-14.652 0.85547-2.0703 1.3711-4.3594 1.3711-6.8086-0.003906-5.7891-2.6992-10.793-6.6758-13.539z" fill-rule="evenodd"/>
</svg>
