<?xml version="1.0" encoding="UTF-8"?>
<svg width="752pt" height="752pt" version="1.1" viewBox="0 0 752 752" xmlns="http://www.w3.org/2000/svg">
 <g>
  <path d="m308.89 302.6c-20.109 0.015625-39.488 7.5586-54.316 21.145-14.832 13.582-24.039 32.227-25.812 52.258h-4.3086c-17.766 0-34.184 9.4805-43.066 24.863-8.8828 15.387-8.8828 34.344 0 49.727 8.8828 15.387 25.301 24.863 43.066 24.863h4.3086c1.7734 20.031 10.98 38.676 25.812 52.262 14.828 13.586 34.207 21.129 54.316 21.145h132.6c20.121-0.003906 39.508-7.543 54.348-21.129 14.84-13.586 24.055-32.234 25.832-52.277h5.8711c17.766 0 34.184-9.4766 43.062-24.863 8.8828-15.383 8.8828-34.34 0-49.727-8.8789-15.383-25.297-24.863-43.062-24.863h-5.8711c-1.7773-20.039-10.992-38.691-25.832-52.277-14.84-13.586-34.227-21.121-54.348-21.125h-61.566l0.003906-33.391c11.199-1.332 20.953-8.2656 25.891-18.406 4.9375-10.145 4.375-22.098-1.4844-31.734-5.8594-9.6406-16.219-15.633-27.496-15.918-11.273-0.28125-21.922 5.1914-28.254 14.523-6.3359 9.332-7.4922 21.242-3.0664 31.621 4.4219 10.375 13.816 17.789 24.938 19.68v33.625zm43.43-66.301c0-6.2812 2.4922-12.305 6.9336-16.746 4.4414-4.4414 10.465-6.9336 16.742-6.9336 6.2812 0 12.305 2.4922 16.746 6.9336 4.4414 4.4414 6.9336 10.465 6.9336 16.746 0 6.2773-2.4922 12.301-6.9336 16.742-4.4414 4.4414-10.465 6.9336-16.746 6.9336-6.2773 0-12.301-2.4922-16.742-6.9336-4.4414-4.4414-6.9336-10.465-6.9336-16.742zm-168.12 189.43c0.015625-10.672 4.2578-20.902 11.805-28.449s17.781-11.793 28.453-11.805h3.9297v80.508h-3.9297c-10.672-0.011719-20.906-4.2578-28.453-11.805-7.5469-7.543-11.789-17.777-11.805-28.449zm134.16 113.66v-28.414h0.003907c0-6.2812 2.4961-12.305 6.9336-16.746 4.4414-4.4375 10.465-6.9336 16.746-6.9336h66.301c6.2812 0 12.301 2.4961 16.742 6.9336 4.4414 4.4414 6.9375 10.465 6.9375 16.746v28.414zm249.43-113.66h0.003906c-0.011719 10.672-4.2578 20.906-11.805 28.449-7.543 7.5469-17.777 11.793-28.449 11.805h-5.5391v-80.508h5.5391c10.672 0.011719 20.906 4.2578 28.449 11.805 7.5469 7.5469 11.793 17.777 11.805 28.449zm-55.266-42.621v85.246h0.003906c0 18.84-7.4844 36.906-20.809 50.23-13.32 13.32-31.391 20.805-50.23 20.805v-28.414c0-8.793-3.4922-17.227-9.707-23.441-6.2188-6.2188-14.648-9.7109-23.441-9.7109h-66.301c-8.793 0-17.227 3.4922-23.441 9.7109-6.2188 6.2148-9.7109 14.648-9.7109 23.441v28.414c-18.84 0-36.91-7.4844-50.23-20.805-13.32-13.324-20.805-31.391-20.805-50.23v-85.246c0-18.84 7.4844-36.91 20.805-50.23 13.32-13.324 31.391-20.809 50.23-20.809h132.6c18.84 0 36.91 7.4844 50.23 20.809 13.324 13.32 20.809 31.391 20.809 50.23z"/>
  <path d="m286.02 397.31c0 8.793 3.4961 17.223 9.7109 23.441 6.2188 6.2148 14.648 9.7109 23.441 9.7109s17.223-3.4961 23.441-9.7109c6.2148-6.2188 9.7109-14.648 9.7109-23.441s-3.4961-17.223-9.7109-23.441c-6.2188-6.2148-14.648-9.7109-23.441-9.7109s-17.223 3.4961-23.441 9.7109c-6.2148 6.2188-9.7109 14.648-9.7109 23.441zm33.152-23.68c6.2812 0 12.305 2.4961 16.742 6.9375 4.4414 4.4375 6.9375 10.461 6.9375 16.742s-2.4961 12.305-6.9375 16.742c-4.4375 4.4414-10.461 6.9375-16.742 6.9375s-12.305-2.4961-16.742-6.9375c-4.4414-4.4375-6.9375-10.461-6.9375-16.742s2.4961-12.305 6.9375-16.742c4.4375-4.4414 10.461-6.9375 16.742-6.9375z"/>
  <path d="m432.83 430.46c8.793 0 17.223-3.4961 23.441-9.7109 6.2148-6.2188 9.707-14.648 9.707-23.441s-3.4922-17.223-9.707-23.441c-6.2188-6.2148-14.648-9.7109-23.441-9.7109s-17.227 3.4961-23.441 9.7109c-6.2188 6.2188-9.7109 14.648-9.7109 23.441s3.4922 17.223 9.7109 23.441c6.2148 6.2148 14.648 9.7109 23.441 9.7109zm0-56.828v-0.003907c6.2773 0 12.301 2.4961 16.742 6.9375 4.4414 4.4375 6.9375 10.461 6.9375 16.742s-2.4961 12.305-6.9375 16.742c-4.4414 4.4414-10.465 6.9375-16.742 6.9375-6.2812 0-12.305-2.4961-16.746-6.9375-4.4375-4.4375-6.9336-10.461-6.9336-16.742s2.4961-12.305 6.9336-16.742c4.4414-4.4414 10.465-6.9375 16.746-6.9375z"/>
 </g>
</svg>
